<mxfile host="65bd71144e">
    <diagram id="0cBSnRIP5TJpdrKgDwhs" name="Page-1">
        <mxGraphModel dx="1092" dy="796" grid="1" gridSize="10" guides="1" tooltips="1" connect="1" arrows="1" fold="1" page="0" pageScale="1" pageWidth="850" pageHeight="1100" math="0" shadow="0">
            <root>
                <mxCell id="0"/>
                <mxCell id="1" parent="0"/>
                <mxCell id="5" value="&lt;span style=&quot;color: rgb(0, 0, 0); font-family: &amp;quot;Nunito Sans&amp;quot;, sans-serif; font-size: 14px; font-weight: 400; text-align: start; background-color: rgb(255, 255, 255);&quot;&gt;événements&lt;/span&gt;" style="swimlane;whiteSpace=wrap;html=1;" vertex="1" parent="1">
                    <mxGeometry x="310" y="220" width="130" height="200" as="geometry"/>
                </mxCell>
                <mxCell id="6" value="id_evenement" style="text;strokeColor=none;fillColor=none;align=left;verticalAlign=middle;spacingLeft=4;spacingRight=4;overflow=hidden;points=[[0,0.5],[1,0.5]];portConstraint=eastwest;rotatable=0;whiteSpace=wrap;html=1;" vertex="1" parent="5">
                    <mxGeometry x="10" y="30" width="100" height="30" as="geometry"/>
                </mxCell>
                <mxCell id="7" value="name" style="text;html=1;strokeColor=none;fillColor=none;align=center;verticalAlign=middle;whiteSpace=wrap;rounded=0;" vertex="1" parent="5">
                    <mxGeometry y="60" width="60" height="30" as="geometry"/>
                </mxCell>
                <mxCell id="8" value="Time" style="text;strokeColor=none;fillColor=none;align=left;verticalAlign=middle;spacingLeft=4;spacingRight=4;overflow=hidden;points=[[0,0.5],[1,0.5]];portConstraint=eastwest;rotatable=0;whiteSpace=wrap;html=1;" vertex="1" parent="5">
                    <mxGeometry x="10" y="90" width="80" height="30" as="geometry"/>
                </mxCell>
                <mxCell id="10" value="lieux" style="text;html=1;strokeColor=none;fillColor=none;align=center;verticalAlign=middle;whiteSpace=wrap;rounded=0;" vertex="1" parent="5">
                    <mxGeometry y="120" width="60" height="30" as="geometry"/>
                </mxCell>
                <mxCell id="13" value="" style="endArrow=none;html=1;" edge="1" parent="1">
                    <mxGeometry width="50" height="50" relative="1" as="geometry">
                        <mxPoint x="440" y="360" as="sourcePoint"/>
                        <mxPoint x="630" y="150" as="targetPoint"/>
                    </mxGeometry>
                </mxCell>
                <mxCell id="14" value="" style="ellipse;whiteSpace=wrap;html=1;" vertex="1" parent="1">
                    <mxGeometry x="480" y="240" width="90" height="50" as="geometry"/>
                </mxCell>
                <mxCell id="16" value="&lt;span style=&quot;color: rgb(0, 0, 0); font-family: &amp;quot;Nunito Sans&amp;quot;, sans-serif; font-size: 14px; font-weight: 400; text-align: start; background-color: rgb(255, 255, 255);&quot;&gt;organisateurs&lt;/span&gt;" style="swimlane;whiteSpace=wrap;html=1;" vertex="1" parent="1">
                    <mxGeometry x="630" y="70" width="130" height="200" as="geometry"/>
                </mxCell>
                <mxCell id="17" value="id_organisatuer" style="text;strokeColor=none;fillColor=none;align=left;verticalAlign=middle;spacingLeft=4;spacingRight=4;overflow=hidden;points=[[0,0.5],[1,0.5]];portConstraint=eastwest;rotatable=0;whiteSpace=wrap;html=1;" vertex="1" parent="16">
                    <mxGeometry x="10" y="30" width="100" height="30" as="geometry"/>
                </mxCell>
                <mxCell id="18" value="name" style="text;html=1;strokeColor=none;fillColor=none;align=center;verticalAlign=middle;whiteSpace=wrap;rounded=0;" vertex="1" parent="16">
                    <mxGeometry y="60" width="60" height="30" as="geometry"/>
                </mxCell>
                <mxCell id="19" value="prenom" style="text;strokeColor=none;fillColor=none;align=left;verticalAlign=middle;spacingLeft=4;spacingRight=4;overflow=hidden;points=[[0,0.5],[1,0.5]];portConstraint=eastwest;rotatable=0;whiteSpace=wrap;html=1;" vertex="1" parent="16">
                    <mxGeometry x="10" y="90" width="80" height="30" as="geometry"/>
                </mxCell>
                <mxCell id="21" value="age" style="text;strokeColor=none;fillColor=none;align=left;verticalAlign=middle;spacingLeft=4;spacingRight=4;overflow=hidden;points=[[0,0.5],[1,0.5]];portConstraint=eastwest;rotatable=0;whiteSpace=wrap;html=1;" vertex="1" parent="16">
                    <mxGeometry x="10" y="120" width="80" height="30" as="geometry"/>
                </mxCell>
                <mxCell id="22" value="address" style="text;strokeColor=none;fillColor=none;align=left;verticalAlign=middle;spacingLeft=4;spacingRight=4;overflow=hidden;points=[[0,0.5],[1,0.5]];portConstraint=eastwest;rotatable=0;whiteSpace=wrap;html=1;" vertex="1" parent="16">
                    <mxGeometry x="10" y="150" width="80" height="30" as="geometry"/>
                </mxCell>
                <mxCell id="24" value="organisation" style="text;html=1;strokeColor=none;fillColor=none;align=center;verticalAlign=middle;whiteSpace=wrap;rounded=0;" vertex="1" parent="1">
                    <mxGeometry x="495" y="250" width="60" height="30" as="geometry"/>
                </mxCell>
                <mxCell id="25" value="1,n" style="text;html=1;strokeColor=none;fillColor=none;align=center;verticalAlign=middle;whiteSpace=wrap;rounded=0;" vertex="1" parent="1">
                    <mxGeometry x="580" y="120" width="60" height="30" as="geometry"/>
                </mxCell>
                <mxCell id="26" value="1,n" style="text;html=1;strokeColor=none;fillColor=none;align=center;verticalAlign=middle;whiteSpace=wrap;rounded=0;" vertex="1" parent="1">
                    <mxGeometry x="435" y="360" width="60" height="30" as="geometry"/>
                </mxCell>
                <mxCell id="27" value="&lt;span style=&quot;color: rgb(0, 0, 0); font-family: &amp;quot;Nunito Sans&amp;quot;, sans-serif; font-size: 14px; font-weight: 400; text-align: start; background-color: rgb(255, 255, 255);&quot;&gt;participants&lt;/span&gt;" style="swimlane;whiteSpace=wrap;html=1;" vertex="1" parent="1">
                    <mxGeometry x="-10" y="30" width="130" height="200" as="geometry"/>
                </mxCell>
                <mxCell id="28" value="id_participants" style="text;strokeColor=none;fillColor=none;align=left;verticalAlign=middle;spacingLeft=4;spacingRight=4;overflow=hidden;points=[[0,0.5],[1,0.5]];portConstraint=eastwest;rotatable=0;whiteSpace=wrap;html=1;" vertex="1" parent="27">
                    <mxGeometry x="10" y="30" width="100" height="30" as="geometry"/>
                </mxCell>
                <mxCell id="29" value="name" style="text;html=1;strokeColor=none;fillColor=none;align=center;verticalAlign=middle;whiteSpace=wrap;rounded=0;" vertex="1" parent="27">
                    <mxGeometry y="60" width="60" height="30" as="geometry"/>
                </mxCell>
                <mxCell id="30" value="prenom" style="text;strokeColor=none;fillColor=none;align=left;verticalAlign=middle;spacingLeft=4;spacingRight=4;overflow=hidden;points=[[0,0.5],[1,0.5]];portConstraint=eastwest;rotatable=0;whiteSpace=wrap;html=1;" vertex="1" parent="27">
                    <mxGeometry x="10" y="90" width="80" height="30" as="geometry"/>
                </mxCell>
                <mxCell id="31" value="age" style="text;strokeColor=none;fillColor=none;align=left;verticalAlign=middle;spacingLeft=4;spacingRight=4;overflow=hidden;points=[[0,0.5],[1,0.5]];portConstraint=eastwest;rotatable=0;whiteSpace=wrap;html=1;" vertex="1" parent="27">
                    <mxGeometry x="10" y="120" width="80" height="30" as="geometry"/>
                </mxCell>
                <mxCell id="33" value="" style="endArrow=none;html=1;exitX=0.426;exitY=-0.008;exitDx=0;exitDy=0;exitPerimeter=0;" edge="1" parent="1" source="64">
                    <mxGeometry width="50" height="50" relative="1" as="geometry">
                        <mxPoint x="10" y="280" as="sourcePoint"/>
                        <mxPoint x="60" y="230" as="targetPoint"/>
                    </mxGeometry>
                </mxCell>
                <mxCell id="34" value="" style="ellipse;whiteSpace=wrap;html=1;" vertex="1" parent="1">
                    <mxGeometry x="10" y="350" width="100" height="60" as="geometry"/>
                </mxCell>
                <mxCell id="35" value="participation" style="text;html=1;strokeColor=none;fillColor=none;align=center;verticalAlign=middle;whiteSpace=wrap;rounded=0;" vertex="1" parent="1">
                    <mxGeometry x="30" y="365" width="60" height="30" as="geometry"/>
                </mxCell>
                <mxCell id="36" value="1,n" style="text;html=1;strokeColor=none;fillColor=none;align=center;verticalAlign=middle;whiteSpace=wrap;rounded=0;" vertex="1" parent="1">
                    <mxGeometry x="45" y="230" width="60" height="30" as="geometry"/>
                </mxCell>
                <mxCell id="38" value="&lt;span style=&quot;color: rgb(0, 0, 0); font-family: &amp;quot;Nunito Sans&amp;quot;, sans-serif; font-size: 14px; font-weight: 400; text-align: start; background-color: rgb(255, 255, 255);&quot;&gt;lieux&lt;/span&gt;" style="swimlane;whiteSpace=wrap;html=1;startSize=23;" vertex="1" parent="1">
                    <mxGeometry x="350" y="-270" width="130" height="200" as="geometry"/>
                </mxCell>
                <mxCell id="39" value="id_lieux" style="text;strokeColor=none;fillColor=none;align=left;verticalAlign=middle;spacingLeft=4;spacingRight=4;overflow=hidden;points=[[0,0.5],[1,0.5]];portConstraint=eastwest;rotatable=0;whiteSpace=wrap;html=1;" vertex="1" parent="38">
                    <mxGeometry x="10" y="30" width="100" height="30" as="geometry"/>
                </mxCell>
                <mxCell id="42" value="city" style="text;strokeColor=none;fillColor=none;align=left;verticalAlign=middle;spacingLeft=4;spacingRight=4;overflow=hidden;points=[[0,0.5],[1,0.5]];portConstraint=eastwest;rotatable=0;whiteSpace=wrap;html=1;" vertex="1" parent="38">
                    <mxGeometry x="10" y="70" width="80" height="30" as="geometry"/>
                </mxCell>
                <mxCell id="51" value="temps" style="text;strokeColor=none;fillColor=none;align=left;verticalAlign=middle;spacingLeft=4;spacingRight=4;overflow=hidden;points=[[0,0.5],[1,0.5]];portConstraint=eastwest;rotatable=0;whiteSpace=wrap;html=1;" vertex="1" parent="38">
                    <mxGeometry x="10" y="100" width="80" height="30" as="geometry"/>
                </mxCell>
                <mxCell id="44" value="" style="endArrow=none;html=1;exitX=0.5;exitY=0;exitDx=0;exitDy=0;startArrow=none;" edge="1" parent="1" source="45">
                    <mxGeometry width="50" height="50" relative="1" as="geometry">
                        <mxPoint x="370" y="-20" as="sourcePoint"/>
                        <mxPoint x="420" y="-70" as="targetPoint"/>
                    </mxGeometry>
                </mxCell>
                <mxCell id="46" value="" style="endArrow=none;html=1;exitX=0.5;exitY=0;exitDx=0;exitDy=0;" edge="1" parent="1" source="5" target="45">
                    <mxGeometry width="50" height="50" relative="1" as="geometry">
                        <mxPoint x="375" y="220" as="sourcePoint"/>
                        <mxPoint x="420" y="-70" as="targetPoint"/>
                    </mxGeometry>
                </mxCell>
                <mxCell id="45" value="" style="ellipse;whiteSpace=wrap;html=1;" vertex="1" parent="1">
                    <mxGeometry x="340" y="40" width="120" height="80" as="geometry"/>
                </mxCell>
                <mxCell id="47" value="lieux" style="text;html=1;strokeColor=none;fillColor=none;align=center;verticalAlign=middle;whiteSpace=wrap;rounded=0;" vertex="1" parent="1">
                    <mxGeometry x="370" y="65" width="60" height="30" as="geometry"/>
                </mxCell>
                <mxCell id="49" value="1,n" style="text;html=1;strokeColor=none;fillColor=none;align=center;verticalAlign=middle;whiteSpace=wrap;rounded=0;" vertex="1" parent="1">
                    <mxGeometry x="410" y="-70" width="60" height="30" as="geometry"/>
                </mxCell>
                <mxCell id="50" value="1,1" style="text;html=1;strokeColor=none;fillColor=none;align=center;verticalAlign=middle;whiteSpace=wrap;rounded=0;" vertex="1" parent="1">
                    <mxGeometry x="375" y="190" width="60" height="30" as="geometry"/>
                </mxCell>
                <mxCell id="53" value="&lt;span style=&quot;color: rgb(0, 0, 0); font-family: &amp;quot;Nunito Sans&amp;quot;, sans-serif; font-size: 14px; font-weight: 400; text-align: start; background-color: rgb(255, 255, 255);&quot;&gt;sponsors&lt;/span&gt;" style="swimlane;whiteSpace=wrap;html=1;" vertex="1" parent="1">
                    <mxGeometry x="450" y="580" width="130" height="140" as="geometry"/>
                </mxCell>
                <mxCell id="54" value="id_sponsors" style="text;strokeColor=none;fillColor=none;align=left;verticalAlign=middle;spacingLeft=4;spacingRight=4;overflow=hidden;points=[[0,0.5],[1,0.5]];portConstraint=eastwest;rotatable=0;whiteSpace=wrap;html=1;" vertex="1" parent="53">
                    <mxGeometry x="10" y="30" width="100" height="30" as="geometry"/>
                </mxCell>
                <mxCell id="55" value="name" style="text;html=1;strokeColor=none;fillColor=none;align=center;verticalAlign=middle;whiteSpace=wrap;rounded=0;" vertex="1" parent="53">
                    <mxGeometry y="60" width="60" height="30" as="geometry"/>
                </mxCell>
                <mxCell id="57" value="lieux" style="text;html=1;strokeColor=none;fillColor=none;align=center;verticalAlign=middle;whiteSpace=wrap;rounded=0;" vertex="1" parent="53">
                    <mxGeometry y="90" width="60" height="30" as="geometry"/>
                </mxCell>
                <mxCell id="58" value="" style="endArrow=none;html=1;exitX=0.5;exitY=0;exitDx=0;exitDy=0;" edge="1" parent="1" source="53">
                    <mxGeometry width="50" height="50" relative="1" as="geometry">
                        <mxPoint x="330" y="470" as="sourcePoint"/>
                        <mxPoint x="380" y="420" as="targetPoint"/>
                    </mxGeometry>
                </mxCell>
                <mxCell id="59" value="" style="ellipse;whiteSpace=wrap;html=1;" vertex="1" parent="1">
                    <mxGeometry x="390" y="460" width="100" height="60" as="geometry"/>
                </mxCell>
                <mxCell id="61" value="sponsorisation" style="text;html=1;strokeColor=none;fillColor=none;align=center;verticalAlign=middle;whiteSpace=wrap;rounded=0;" vertex="1" parent="1">
                    <mxGeometry x="410" y="475" width="60" height="30" as="geometry"/>
                </mxCell>
                <mxCell id="62" value="1,n" style="text;html=1;strokeColor=none;fillColor=none;align=center;verticalAlign=middle;whiteSpace=wrap;rounded=0;" vertex="1" parent="1">
                    <mxGeometry x="320" y="420" width="60" height="30" as="geometry"/>
                </mxCell>
                <mxCell id="63" value="1,n" style="text;html=1;strokeColor=none;fillColor=none;align=center;verticalAlign=middle;whiteSpace=wrap;rounded=0;" vertex="1" parent="1">
                    <mxGeometry x="450" y="550" width="60" height="30" as="geometry"/>
                </mxCell>
                <mxCell id="64" value="&lt;span style=&quot;color: rgb(0, 0, 0); font-family: &amp;quot;Nunito Sans&amp;quot;, sans-serif; font-size: 14px; font-weight: 400; text-align: start; background-color: rgb(255, 255, 255);&quot;&gt;billets&lt;/span&gt;" style="swimlane;whiteSpace=wrap;html=1;startSize=23;" vertex="1" parent="1">
                    <mxGeometry x="10" y="590" width="130" height="140" as="geometry"/>
                </mxCell>
                <mxCell id="65" value="id_billets" style="text;strokeColor=none;fillColor=none;align=left;verticalAlign=middle;spacingLeft=4;spacingRight=4;overflow=hidden;points=[[0,0.5],[1,0.5]];portConstraint=eastwest;rotatable=0;whiteSpace=wrap;html=1;" vertex="1" parent="64">
                    <mxGeometry x="15" y="30" width="100" height="30" as="geometry"/>
                </mxCell>
                <mxCell id="67" value="prix" style="text;html=1;strokeColor=none;fillColor=none;align=center;verticalAlign=middle;whiteSpace=wrap;rounded=0;" vertex="1" parent="64">
                    <mxGeometry y="70" width="60" height="30" as="geometry"/>
                </mxCell>
                <mxCell id="69" value="number" style="text;html=1;strokeColor=none;fillColor=none;align=center;verticalAlign=middle;whiteSpace=wrap;rounded=0;" vertex="1" parent="64">
                    <mxGeometry x="10" y="100" width="60" height="30" as="geometry"/>
                </mxCell>
                <mxCell id="68" value="" style="endArrow=none;html=1;exitX=1;exitY=0;exitDx=0;exitDy=0;" edge="1" parent="1" source="64">
                    <mxGeometry width="50" height="50" relative="1" as="geometry">
                        <mxPoint x="260" y="470" as="sourcePoint"/>
                        <mxPoint x="310" y="420" as="targetPoint"/>
                    </mxGeometry>
                </mxCell>
                <mxCell id="71" value="autorisation" style="ellipse;whiteSpace=wrap;html=1;" vertex="1" parent="1">
                    <mxGeometry x="180" y="475" width="100" height="60" as="geometry"/>
                </mxCell>
                <mxCell id="72" value="1,1" style="text;html=1;strokeColor=none;fillColor=none;align=center;verticalAlign=middle;whiteSpace=wrap;rounded=0;" vertex="1" parent="1">
                    <mxGeometry x="60" y="560" width="60" height="30" as="geometry"/>
                </mxCell>
                <mxCell id="73" value="1,n" style="text;html=1;strokeColor=none;fillColor=none;align=center;verticalAlign=middle;whiteSpace=wrap;rounded=0;" vertex="1" parent="1">
                    <mxGeometry x="260" y="400" width="60" height="30" as="geometry"/>
                </mxCell>
                <mxCell id="77" value="1,1" style="text;html=1;strokeColor=none;fillColor=none;align=center;verticalAlign=middle;whiteSpace=wrap;rounded=0;" vertex="1" parent="1">
                    <mxGeometry x="130" y="590" width="60" height="30" as="geometry"/>
                </mxCell>
            </root>
        </mxGraphModel>
    </diagram>
</mxfile>